<svg xmlns="http://www.w3.org/2000/svg" width="950" height="199" viewBox="0 0 950 199" fill="none"><path d="M0 0H113.694L155.566 43.2727H42.4459V79.0909H118.242L77.3121 120.879H42.4459V155.182L0 198.667V0Z" fill="#1B1B1B"></path><path d="M155.893 189.515L90.7085 125.333L164.989 53.0303L193.791 83.3333L152.801 124.969L218.046 189.515H155.893Z" fill="#1B1B1B"></path><path d="M282.993 74.668H254.797V95.3043H281.81V103.304H254.797V130.304H246.338V66.668H282.993V74.668Z" fill="#1B1B1B"></path><path d="M356.178 121.85C349.811 128.274 342.02 131.486 332.803 131.486C323.586 131.486 315.794 128.274 309.427 121.85C303.06 115.425 299.876 107.638 299.876 98.4861C299.876 89.274 303.06 81.4861 309.427 75.1224C315.794 68.6982 323.586 65.4861 332.803 65.4861C342.02 65.4861 349.811 68.6982 356.178 75.1224C362.606 81.4861 365.82 89.274 365.82 98.4861C365.82 107.638 362.606 115.425 356.178 121.85ZM315.248 116.122C319.978 120.85 325.829 123.213 332.803 123.213C339.776 123.213 345.597 120.85 350.266 116.122C354.996 111.335 357.361 105.456 357.361 98.4861C357.361 91.4558 354.996 85.577 350.266 80.8497C345.597 76.0618 339.776 73.6679 332.803 73.6679C325.829 73.6679 319.978 76.0618 315.248 80.8497C310.579 85.577 308.245 91.4558 308.245 98.4861C308.245 105.456 310.579 111.335 315.248 116.122Z" fill="#1B1B1B"></path><path d="M423.74 130.304L409.46 105.941H394.452V130.304H385.994V66.668H411.461C416.918 66.668 421.588 68.6074 425.468 72.4862C429.349 76.3043 431.289 80.9407 431.289 86.3952C431.289 90.5165 430.046 94.274 427.56 97.668C425.135 101.062 421.982 103.456 418.101 104.85L433.109 130.304H423.74ZM394.452 74.5771V98.3043H411.461C414.614 98.3043 417.282 97.1528 419.465 94.8498C421.709 92.4861 422.831 89.668 422.831 86.3952C422.831 83.1225 421.709 80.3346 419.465 78.0316C417.282 75.7286 414.614 74.5771 411.461 74.5771H394.452Z" fill="#1B1B1B"></path><path d="M511.179 66.668V130.304H502.811V80.5771L481.982 115.213H480.89L460.062 80.668V130.304H451.603V66.668H461.153L481.436 100.304L501.628 66.668H511.179Z" fill="#1B1B1B"></path><path d="M534.797 106.213V98.5769H567.995V106.213H534.797Z" fill="#1B1B1B"></path><path d="M629.36 130.304L615.08 105.941H600.072V130.304H591.613V66.668H617.081C622.538 66.668 627.207 68.6074 631.088 72.4862C634.969 76.3043 636.909 80.9407 636.909 86.3952C636.909 90.5165 635.666 94.274 633.18 97.668C630.754 101.062 627.601 103.456 623.721 104.85L638.728 130.304H629.36ZM600.072 74.5771V98.3043H617.081C620.234 98.3043 622.902 97.1528 625.085 94.8498C627.328 92.4861 628.45 89.668 628.45 86.3952C628.45 83.1225 627.328 80.3346 625.085 78.0316C622.902 75.7286 620.234 74.5771 617.081 74.5771H600.072Z" fill="#1B1B1B"></path><path d="M657.223 66.668H665.682V130.304H657.223V66.668Z" fill="#1B1B1B"></path><path d="M730.093 66.668V74.668H711.265V130.304H702.897V74.668H684.161V66.668H730.093Z" fill="#1B1B1B"></path><path d="M756.928 122.304H786.488V130.304H748.469V66.668H786.034V74.668H756.928V94.2134H783.76V102.123H756.928V122.304Z" fill="#1B1B1B"></path><path d="M856.448 128.101C849.699 128.101 844.118 125.874 839.703 121.419C835.331 116.965 833.146 111.492 833.146 105.001C833.146 98.51 835.331 93.0372 839.703 88.5827C844.118 84.1282 849.699 81.9009 856.448 81.9009C860.523 81.9009 864.258 82.8766 867.654 84.8282C871.092 86.7797 873.766 89.41 875.676 92.7191L870.519 95.71C869.246 93.2494 867.336 91.2978 864.789 89.8554C862.285 88.3706 859.504 87.6281 856.448 87.6281C851.312 87.6281 847.11 89.2827 843.842 92.5918C840.616 95.9009 839.003 100.037 839.003 105.001C839.003 109.922 840.616 114.037 843.842 117.346C847.11 120.655 851.312 122.31 856.448 122.31C859.504 122.31 862.285 121.589 864.789 120.146C867.336 118.661 869.246 116.71 870.519 114.292L875.676 117.219C873.809 120.528 871.156 123.18 867.718 125.174C864.279 127.125 860.523 128.101 856.448 128.101Z" fill="#1B1B1B"></path><path d="M925.68 121.355C921.224 125.852 915.769 128.101 909.318 128.101C902.866 128.101 897.412 125.852 892.955 121.355C888.498 116.858 886.27 111.407 886.27 105.001C886.27 98.5524 888.498 93.1009 892.955 88.6463C897.412 84.1494 902.866 81.9009 909.318 81.9009C915.769 81.9009 921.224 84.1494 925.68 88.6463C930.18 93.1009 932.429 98.5524 932.429 105.001C932.429 111.407 930.18 116.858 925.68 121.355ZM897.029 117.346C900.34 120.655 904.436 122.31 909.318 122.31C914.199 122.31 918.274 120.655 921.542 117.346C924.853 113.995 926.508 109.88 926.508 105.001C926.508 100.08 924.853 95.9645 921.542 92.6554C918.274 89.3039 914.199 87.6281 909.318 87.6281C904.436 87.6281 900.34 89.3039 897.029 92.6554C893.761 95.9645 892.127 100.08 892.127 105.001C892.127 109.88 893.761 113.995 897.029 117.346Z" fill="#1B1B1B"></path><path d="M945.609 127.974C944.463 127.974 943.487 127.571 942.68 126.765C941.874 125.958 941.47 124.983 941.47 123.837C941.47 122.692 941.874 121.716 942.68 120.91C943.487 120.104 944.463 119.701 945.609 119.701C946.797 119.701 947.774 120.104 948.538 120.91C949.344 121.716 949.747 122.692 949.747 123.837C949.747 124.983 949.344 125.958 948.538 126.765C947.774 127.571 946.797 127.974 945.609 127.974Z" fill="#1B1B1B"></path></svg>