<svg xmlns="http://www.w3.org/2000/svg" width="314" height="66" viewBox="0 0 314 66" fill="none"><path d="M0 0H37.5L51.3107 14.28H14V26.1H39L25.5 39.89H14V51.21L0 65.56V0Z" fill="#ffffff"></path><path d="M51.4186 62.5398L29.9186 41.3598L54.4186 17.5L63.9186 27.5L50.3986 41.2398L71.9186 62.5398H51.4186Z" fill="#ffffff"></path><path d="M93.34 24.6404H84.04V31.4504H92.95V34.0904H84.04V43.0004H81.25V22.0004H93.34V24.6404Z" fill="#ffffff"></path><path d="M117.479 40.2104C115.379 42.3304 112.809 43.3904 109.769 43.3904C106.729 43.3904 104.159 42.3304 102.059 40.2104C99.9588 38.0904 98.9087 35.5204 98.9087 32.5004C98.9087 29.4604 99.9588 26.8904 102.059 24.7904C104.159 22.6704 106.729 21.6104 109.769 21.6104C112.809 21.6104 115.379 22.6704 117.479 24.7904C119.599 26.8904 120.659 29.4604 120.659 32.5004C120.659 35.5204 119.599 38.0904 117.479 40.2104ZM103.979 38.3204C105.539 39.8804 107.469 40.6604 109.769 40.6604C112.069 40.6604 113.989 39.8804 115.529 38.3204C117.089 36.7404 117.869 34.8004 117.869 32.5004C117.869 30.1804 117.089 28.2404 115.529 26.6804C113.989 25.1004 112.069 24.3104 109.769 24.3104C107.469 24.3104 105.539 25.1004 103.979 26.6804C102.439 28.2404 101.669 30.1804 101.669 32.5004C101.669 34.8004 102.439 36.7404 103.979 38.3204Z" fill="#ffffff"></path><path d="M139.763 43.0004L135.053 34.9604H130.103V43.0004H127.313V22.0004H135.713C137.513 22.0004 139.053 22.6404 140.333 23.9204C141.613 25.1804 142.253 26.7104 142.253 28.5104C142.253 29.8704 141.843 31.1104 141.023 32.2304C140.223 33.3504 139.183 34.1404 137.903 34.6004L142.853 43.0004H139.763ZM130.103 24.6104V32.4404H135.713C136.753 32.4404 137.633 32.0604 138.353 31.3004C139.093 30.5204 139.463 29.5904 139.463 28.5104C139.463 27.4304 139.093 26.5104 138.353 25.7504C137.633 24.9904 136.753 24.6104 135.713 24.6104H130.103Z" fill="#ffffff"></path><path d="M168.603 22.0004V43.0004H165.843V26.5904L158.973 38.0204H158.613L151.743 26.6204V43.0004H148.953V22.0004H152.103L158.793 33.1004L165.453 22.0004H168.603Z" fill="#ffffff"></path><path d="M176.393 35.0504V32.5304H187.343V35.0504H176.393Z" fill="#ffffff"></path><path d="M207.583 43.0004L202.873 34.9604H197.923V43.0004H195.133V22.0004H203.533C205.333 22.0004 206.873 22.6404 208.153 23.9204C209.433 25.1804 210.073 26.7104 210.073 28.5104C210.073 29.8704 209.663 31.1104 208.843 32.2304C208.043 33.3504 207.003 34.1404 205.723 34.6004L210.673 43.0004H207.583ZM197.923 24.6104V32.4404H203.533C204.573 32.4404 205.453 32.0604 206.173 31.3004C206.913 30.5204 207.283 29.5904 207.283 28.5104C207.283 27.4304 206.913 26.5104 206.173 25.7504C205.453 24.9904 204.573 24.6104 203.533 24.6104H197.923Z" fill="#ffffff"></path><path d="M216.773 22.0004H219.563V43.0004H216.773V22.0004Z" fill="#ffffff"></path><path d="M240.808 22.0004V24.6404H234.598V43.0004H231.838V24.6404H225.658V22.0004H240.808Z" fill="#ffffff"></path><path d="M249.659 40.3604H259.409V43.0004H246.869V22.0004H259.259V24.6404H249.659V31.0904H258.509V33.7004H249.659V40.3604Z" fill="#ffffff"></path><path d="M282.484 42.2733C280.258 42.2733 278.417 41.5383 276.961 40.0683C275.519 38.5983 274.798 36.7923 274.798 34.6503C274.798 32.5083 275.519 30.7023 276.961 29.2323C278.417 27.7623 280.258 27.0273 282.484 27.0273C283.828 27.0273 285.06 27.3493 286.18 27.9933C287.314 28.6373 288.196 29.5053 288.826 30.5973L287.125 31.5843C286.705 30.7723 286.075 30.1283 285.235 29.6523C284.409 29.1623 283.492 28.9173 282.484 28.9173C280.79 28.9173 279.404 29.4633 278.326 30.5553C277.262 31.6473 276.73 33.0123 276.73 34.6503C276.73 36.2743 277.262 37.6323 278.326 38.7243C279.404 39.8163 280.79 40.3623 282.484 40.3623C283.492 40.3623 284.409 40.1243 285.235 39.6483C286.075 39.1583 286.705 38.5143 287.125 37.7163L288.826 38.6823C288.21 39.7743 287.335 40.6493 286.201 41.3073C285.067 41.9513 283.828 42.2733 282.484 42.2733Z" fill="#ffffff"></path><path d="M305.319 40.0473C303.849 41.5313 302.05 42.2733 299.922 42.2733C297.794 42.2733 295.995 41.5313 294.525 40.0473C293.055 38.5633 292.32 36.7643 292.32 34.6503C292.32 32.5223 293.055 30.7233 294.525 29.2533C295.995 27.7693 297.794 27.0273 299.922 27.0273C302.05 27.0273 303.849 27.7693 305.319 29.2533C306.803 30.7233 307.545 32.5223 307.545 34.6503C307.545 36.7643 306.803 38.5633 305.319 40.0473ZM295.869 38.7243C296.961 39.8163 298.312 40.3623 299.922 40.3623C301.532 40.3623 302.876 39.8163 303.954 38.7243C305.046 37.6183 305.592 36.2603 305.592 34.6503C305.592 33.0263 305.046 31.6683 303.954 30.5763C302.876 29.4703 301.532 28.9173 299.922 28.9173C298.312 28.9173 296.961 29.4703 295.869 30.5763C294.791 31.6683 294.252 33.0263 294.252 34.6503C294.252 36.2603 294.791 37.6183 295.869 38.7243Z" fill="#ffffff"></path><path d="M311.892 42.2313C311.514 42.2313 311.192 42.0983 310.926 41.8323C310.66 41.5663 310.527 41.2443 310.527 40.8663C310.527 40.4883 310.66 40.1663 310.926 39.9003C311.192 39.6343 311.514 39.5013 311.892 39.5013C312.284 39.5013 312.606 39.6343 312.858 39.9003C313.124 40.1663 313.257 40.4883 313.257 40.8663C313.257 41.2443 313.124 41.5663 312.858 41.8323C312.606 42.0983 312.284 42.2313 311.892 42.2313Z" fill="#ffffff"></path></svg>